<?xml version="1.0" encoding="UTF-8" standalone="no"?>
<!--

    Licensed to the Apache Software Foundation (ASF) under one
    or more contributor license agreements.  See the NOTICE file
    distributed with this work for additional information
    regarding copyright ownership.  The ASF licenses this file
    to you under the Apache License, Version 2.0 (the
    "License"); you may not use this file except in compliance
    with the License.  You may obtain a copy of the License at

      http://www.apache.org/licenses/LICENSE-2.0

    Unless required by applicable law or agreed to in writing,
    software distributed under the License is distributed on an
    "AS IS" BASIS, WITHOUT WARRANTIES OR CONDITIONS OF ANY
    KIND, either express or implied.  See the License for the
    specific language governing permissions and limitations
    under the License.

-->

<!-- Generator: Adobe Illustrator 23.0.1, SVG Export Plug-In . SVG Version: 6.00 Build 0)  -->

<svg
   version="1.1"
   id="Vector_Icons"
   x="0px"
   y="0px"
   width="16px"
   height="16px"
   viewBox="0 0 16 16"
   style="enable-background:new 0 0 16 16;"
   xml:space="preserve"
   sodipodi:docname="suggest.svg"
   inkscape:version="1.3.2 (091e20e, 2023-11-25)"
   xmlns:inkscape="http://www.inkscape.org/namespaces/inkscape"
   xmlns:sodipodi="http://sodipodi.sourceforge.net/DTD/sodipodi-0.dtd"
   xmlns="http://www.w3.org/2000/svg"
   xmlns:svg="http://www.w3.org/2000/svg"><defs
   id="defs17027" /><sodipodi:namedview
   id="namedview17025"
   pagecolor="#ffffff"
   bordercolor="#666666"
   borderopacity="1.0"
   inkscape:pageshadow="2"
   inkscape:pageopacity="0.0"
   inkscape:pagecheckerboard="0"
   showgrid="false"
   inkscape:zoom="29.651788"
   inkscape:cx="7.8241487"
   inkscape:cy="5.0924416"
   inkscape:window-width="1576"
   inkscape:window-height="1049"
   inkscape:window-x="202"
   inkscape:window-y="49"
   inkscape:window-maximized="0"
   inkscape:current-layer="Vector_Icons"
   inkscape:showpageshadow="2"
   inkscape:deskcolor="#d1d1d1" />
<style
   type="text/css"
   id="style17020">
	.st0{fill:#FFFFFF;}
	.st1{opacity:0.25;}
	.st2{fill:#FAFAFA;}
	.st3{opacity:0.33;}
	.st4{fill:none;stroke:#474747;stroke-miterlimit:10;}
	.st5{opacity:0.42;}
	.st6{fill:#CAE3FF;}
	.st7{opacity:0.2;}
	.st8{opacity:0.03;}
	.st9{opacity:0.1;}
	.st10{opacity:0.15;}
	.st11{opacity:0.45;}
	.st12{fill:#FFE1B0;}
	.st13{fill:#B3DBFF;}
	.st14{fill:#FBDC7C;}
	.st15{fill:#FFDB43;}
	.st16{fill:#E79B00;}
	.st17{fill:#3883CE;}
	.st18{fill:none;stroke:#003399;stroke-width:1.375;stroke-miterlimit:10;}
	.st19{fill:#E8513D;}
	.st20{fill:#1E1E1E;}
	.st21{fill:#FFC36D;}
	.st22{fill:#9FCBFF;}
	.st23{fill:#E9F7FF;}
	.st24{fill:#62707C;}
	.st25{fill:#7A8896;}
	.st26{fill:#57BFFF;}
	.st27{fill:#E69D35;}
	.st28{fill:#9CFF73;}
	.st29{fill:#4891CC;}
	.st30{fill:#474747;}
	.st31{fill:#CCA05E;}
	.st32{opacity:0.67;}
	.st33{opacity:0.3;}
	.st34{fill:#EAEAEA;}
	.st35{fill:#FFE945;}
	.st36{fill:#FFCF8C;}
	.st37{fill:#FF5252;}
	.st38{opacity:0.12;}
	.st39{fill:#45A5F4;}
	.st40{fill:url(#SVGID_1_);}
	.st41{fill:url(#SVGID_2_);}
	.st42{opacity:0.05;}
	.st43{fill:#3D81F5;}
	.st44{fill:#CECECE;}
	.st45{fill:#B5B5B5;}
	.st46{opacity:0.4;}
	.st47{fill:#595959;}
	.st48{fill:#80FF80;}
	.st49{fill:#C8FF80;}
	.st50{fill:#FFEE80;}
	.st51{fill:#FFA680;}
	.st52{fill:#FF8080;}
	.st53{fill:none;}
	.st54{fill:#007AFF;}
	.st55{fill:#EFFF78;}
	.st56{fill:#FFDA00;}
	.st57{fill:#3EADFF;}
	.st58{opacity:0.67;fill:#FFFFFF;}
	.st59{fill:#2E92FF;}
	.st60{fill:#3AEA00;}
	.st61{fill:#303030;}
</style>

<path
   style="font-size:16.4841px;font-family:'Helvetica Neue';-inkscape-font-specification:'Helvetica Neue';fill:#9d9d9d;stroke-width:0;paint-order:stroke fill markers"
   d="m 6.7331828,12.527608 v 1.829735 H 8.5629179 V 12.527608 Z M 4.0462744,6.2636495 H 5.447423 q 0,-0.5769436 0.1318728,-1.0714666 Q 5.7111686,4.6976599 5.9913983,4.3350097 6.2881121,3.9723595 6.7166987,3.7580662 7.1452853,3.5437729 7.7387129,3.5437729 q 0.8901414,0 1.4011485,0.5110071 Q 9.6673526,4.5657871 9.7332891,5.4724126 9.7662573,6.0823243 9.5849321,6.510911 9.403607,6.9394976 9.0904091,7.3021478 8.7936953,7.6483139 8.4310451,7.9779959 8.084879,8.2911938 7.755197,8.6703281 7.4419991,9.0494624 7.2112217,9.5439854 6.9969284,10.022024 6.9639602,10.714357 v 0.774752 h 1.4011485 v -0.64288 q 0,-0.428586 0.1153887,-0.758268 Q 8.6123702,9.7417946 8.8101794,9.4615649 9.0244727,9.1648511 9.2717342,8.9175896 9.5354798,8.653844 9.7992255,8.4065825 10.062971,8.1428369 10.310233,7.8626072 q 0.263745,-0.2802297 0.461554,-0.6099117 0.19781,-0.329682 0.313198,-0.7253004 0.131873,-0.4121026 0.131873,-0.9231097 0,-0.7912368 -0.263746,-1.4011485 Q 10.705851,3.5932252 10.244296,3.1811227 9.7827414,2.7525361 9.1398614,2.5382428 8.5134656,2.3074654 7.7387129,2.3074654 q -0.8571732,0 -1.5495054,0.2967138 Q 5.4968753,2.900893 5.0188364,3.4448683 4.5407974,3.9723595 4.2770518,4.6976599 4.0297903,5.4229603 4.0462744,6.2636495 Z"
   id="text1"
   transform="scale(1.0383436,0.96307233)"
   aria-label="?" /></svg>
