<?xml version="1.0" encoding="UTF-8" standalone="no"?>
<!--

    Licensed to the Apache Software Foundation (ASF) under one
    or more contributor license agreements.  See the NOTICE file
    distributed with this work for additional information
    regarding copyright ownership.  The ASF licenses this file
    to you under the Apache License, Version 2.0 (the
    "License"); you may not use this file except in compliance
    with the License.  You may obtain a copy of the License at

      https://www.apache.org/licenses/LICENSE-2.0

    Unless required by applicable law or agreed to in writing,
    software distributed under the License is distributed on an
    "AS IS" BASIS, WITHOUT WARRANTIES OR CONDITIONS OF ANY
    KIND, either express or implied.  See the License for the
    specific language governing permissions and limitations
    under the License.

-->

<svg width="16" height="16" viewBox="0 0 16 16" fill="none" xmlns="http://www.w3.org/2000/svg">
<path fill-rule="evenodd" clip-rule="evenodd" d="M14 3H2V14.0667H14V3ZM1 2V15.0667H15V2H1Z" fill="white"/>
<path fill-rule="evenodd" clip-rule="evenodd" d="M15 5.2998H1V4.2998H15V5.2998Z" fill="white"/>
<path fill-rule="evenodd" clip-rule="evenodd" d="M5.1665 15.0665V4.7998H6.1665V15.0665H5.1665Z" fill="white"/>
<path fill-rule="evenodd" clip-rule="evenodd" d="M9.8335 15.0665V4.7998H10.8335V15.0665H9.8335Z" fill="white"/>
<path d="M8.93311 7.1333H8.46644V6.19997H8.93311V7.1333Z" fill="white"/>
<path d="M8.93311 9H8.46644V8.06667H8.93311V9Z" fill="white"/>
<path d="M8.94287 10.8667H8.4762V9.93337H8.94287V10.8667Z" fill="white"/>
<path d="M8.93311 12.7334H8.46644V11.8001H8.93311V12.7334Z" fill="white"/>
<path d="M7.5332 7.1333H7.06654V6.19997H7.5332V7.1333Z" fill="white"/>
<path d="M7.5332 9H7.06654V8.06667H7.5332V9Z" fill="white"/>
<path d="M7.54297 10.8667H7.0763V9.93337H7.54297V10.8667Z" fill="white"/>
<path d="M7.5332 12.7334H7.06654V11.8001H7.5332V12.7334Z" fill="white"/>
<path fill-rule="evenodd" clip-rule="evenodd" d="M4.14904 7.93916C4.14904 8.24843 3.89833 8.49913 3.58907 8.49913C3.2798 8.49913 3.0291 8.24843 3.0291 7.93916C3.0291 7.6299 3.2798 7.37919 3.58907 7.37919C3.89833 7.37919 4.14904 7.6299 4.14904 7.93916ZM3.95078 9.15969C4.47745 9.00384 4.86173 8.51638 4.86173 7.93916C4.86173 7.23629 4.29194 6.6665 3.58907 6.6665C2.8862 6.6665 2.31641 7.23629 2.31641 7.93916C2.31641 8.52029 2.70591 9.01045 3.23809 9.16281V10.0261H2.47418H2.3169V10.23V10.7388H3.23809V11.5538H2.47468H2.3169L2.3174 11.7576V12.2665H3.33553L3.84365 12.2662L3.89722 12.1734L3.95078 12.0806V9.15969Z" fill="white"/>
</svg>
