<?xml version="1.0" encoding="UTF-8" standalone="no"?>
<!--

    Licensed to the Apache Software Foundation (ASF) under one
    or more contributor license agreements.  See the NOTICE file
    distributed with this work for additional information
    regarding copyright ownership.  The ASF licenses this file
    to you under the Apache License, Version 2.0 (the
    "License"); you may not use this file except in compliance
    with the License.  You may obtain a copy of the License at

      https://www.apache.org/licenses/LICENSE-2.0

    Unless required by applicable law or agreed to in writing,
    software distributed under the License is distributed on an
    "AS IS" BASIS, WITHOUT WARRANTIES OR CONDITIONS OF ANY
    KIND, either express or implied.  See the License for the
    specific language governing permissions and limitations
    under the License.

-->

<svg
   width="16"
   height="16"
   version="1.1"
   id="svg41403"
   inkscape:version="1.2-alpha (0bd5040e, 2022-02-05)"
   sodipodi:docname="connectionDisconnected.svg"
   xmlns:inkscape="http://www.inkscape.org/namespaces/inkscape"
   xmlns:sodipodi="http://sodipodi.sourceforge.net/DTD/sodipodi-0.dtd"
   xmlns="http://www.w3.org/2000/svg"
   xmlns:svg="http://www.w3.org/2000/svg">
  <sodipodi:namedview
     id="namedview41405"
     pagecolor="#ffffff"
     bordercolor="#666666"
     borderopacity="1.0"
     inkscape:pageshadow="2"
     inkscape:pageopacity="0.0"
     inkscape:pagecheckerboard="0"
     inkscape:blackoutopacity="0.0"
     inkscape:document-units="mm"
     showgrid="false"
     inkscape:zoom="4.2819997"
     inkscape:cx="30.593183"
     inkscape:cy="6.8893045"
     inkscape:window-width="1408"
     inkscape:window-height="551"
     inkscape:window-x="278"
     inkscape:window-y="25"
     inkscape:window-maximized="0"
     inkscape:current-layer="layer1" />
  <defs
     id="defs41400" />
  <g
     inkscape:label="Layer 1"
     inkscape:groupmode="layer"
     id="layer1">
    <path
       id="path50207-0"
       style="color:#000000;fill:#939699;stroke-width:1.00148;stroke-miterlimit:2.2;-inkscape-stroke:none;paint-order:markers fill stroke"
       d="M 7.9458367,15.500002 H 15.50211 V 0.50000228 H 8.4312694 L 7.2354067,1.5020911 11.552091,5.125003 7.0874911,8.8729196 11.464567,12.550007 Z" />
    <path
       id="path20954-7"
       style="color:#000000;fill:#939699;stroke-width:1.00148;stroke-miterlimit:2.2;-inkscape-stroke:none;paint-order:markers fill stroke"
       d="M 5.9187604,0.50000228 H 0.50417889 V 15.500002 H 5.4312717 L 8.9520982,12.541674 4.5833273,8.8729196 9.0395817,5.125003 4.724994,1.5020911 Z" />
    <path
       id="path50209-8"
       style="color:#000000;fill:#636567;stroke-width:4.03151;stroke-miterlimit:2.2;-inkscape-stroke:none;paint-order:markers fill stroke"
       d="M 8.5416919,14.999999 7.3500221,16 H 16 V 0 H 9.0270841 L 7.8333581,1.0000005 H 15.000028 V 14.999999 Z" />
    <path
       id="path28634-8"
       style="color:#000000;fill:#636567;stroke-width:4.03151;stroke-miterlimit:2.2;-inkscape-stroke:none;paint-order:markers fill stroke"
       d="M 6.5166716,0 H 0 V 0.50209058 16 H 4.8375131 L 6.0270866,14.999999 H 1.0083578 V 1.0000005 h 4.3145474 z" />
    <path
       id="path50689-0"
       style="color:#000000;fill:#939699;stroke-width:1.04819;stroke-miterlimit:2.2;-inkscape-stroke:none;paint-order:markers fill stroke"
       d="M 8.7062577,2.7375027 V 2.391681 H 8.2958514 Z" />
    <path
       id="path34169-6"
       style="color:#000000;fill:#939699;stroke-width:1.04819;stroke-miterlimit:2.2;-inkscape-stroke:none;paint-order:markers fill stroke"
       d="M 8.7062577,7.5145918 7.2291578,8.754164 h 1.4770999 z" />
    <path
       id="path34165-2"
       style="color:#000000;fill:#939699;stroke-width:1.04819;stroke-miterlimit:2.2;-inkscape-stroke:none;paint-order:markers fill stroke"
       d="M 5.7854387,2.3916689 H 2.3437505 V 8.754164 H 4.724994 L 8.7062577,5.4062524 V 4.845834 Z" />
    <path
       id="path18397-1"
       style="color:#000000;fill:#636567;stroke-width:4.03151;stroke-miterlimit:2.2;-inkscape-stroke:none;paint-order:markers fill stroke"
       d="M 5.0625108,9.275009 4.5833273,8.8729076 5.3520933,8.22707 H 2.866676 V 2.9125018 H 6.4041525 L 5.1562431,1.8645871 H 1.8187691 V 2.3916689 9.275009 Z" />
    <path
       id="path18393-5"
       style="color:#000000;fill:#636567;stroke-width:4.03151;stroke-miterlimit:2.2;-inkscape-stroke:none;paint-order:markers fill stroke"
       d="M 9.2291829,7.0750094 8.1812762,7.9541658 V 8.2270981 H 7.8563377 L 7.0875715,8.8729357 7.5667552,9.2750373 h 1.6625084 z" />
    <path
       id="path18389-1"
       style="color:#000000;fill:#636567;stroke-width:4.03151;stroke-miterlimit:2.2;-inkscape-stroke:none;paint-order:markers fill stroke"
       d="M 7.666696,1.8645871 9.2291829,3.1750087 V 1.8645871 Z" />
    <path
       style="color:#000000;fill:#939699;stroke-width:0.71362;stroke-miterlimit:2.2;-inkscape-stroke:none;paint-order:markers fill stroke"
       d="m 11.669367,2.2649993 c 0.715389,0 1.430778,0 2.146167,0 0,0.7153848 0,1.43077 0,2.1461549 -0.715389,0 -1.430778,0 -2.146167,0 0,-0.7153849 0,-1.4307701 0,-2.1461549 z"
       id="path55731-1" />
    <path
       style="color:#000000;fill:#636567;stroke-width:4.03151;stroke-miterlimit:2.2;-inkscape-stroke:none;paint-order:markers fill stroke"
       d="m 11.314918,1.9044868 v 0.3621896 2.5039381 h 2.85829 V 1.9044747 Z m 0.708656,0.7165339 h 1.433076 v 1.433072 h -1.433076 z"
       id="path55734-0" />
    <path
       style="color:#000000;fill:#939699;stroke-width:0.71362;stroke-miterlimit:2.2;-inkscape-stroke:none;paint-order:markers fill stroke"
       d="m 11.657676,11.547293 c 0.715389,0 1.430778,0 2.146166,0 0,0.715385 0,1.43077 0,2.146155 -0.715388,0 -1.430777,0 -2.146166,0 0,-0.715385 0,-1.43077 0,-2.146155 z"
       id="path49989-1" />
    <path
       style="color:#000000;fill:#636567;stroke-width:4.03151;stroke-miterlimit:2.2;-inkscape-stroke:none;paint-order:markers fill stroke"
       d="m 11.299195,11.18795 v 0.362189 2.503934 h 2.85825 v -2.866139 z m 0.716518,0.716534 h 1.433076 v 1.433072 h -1.433076 z"
       id="path49991-8" />
    <path
       id="path24383-7-7"
       style="color:#000000;fill:#636567;stroke-width:4.03151;-inkscape-stroke:none"
       d="m 10.939586,12.10834 0.524981,0.441667 -0.722888,0.606248 h 0.85625 V 12.10834 Z" />
    <path
       id="path11674-0"
       style="color:#000000;fill:#636567;stroke-width:4.03151;-inkscape-stroke:none"
       d="m 5.070856,9.283338 v 3.872917 H 8.2208251 L 8.9520982,12.541674 8.4354217,12.10834 H 6.1187629 v -1.945833 z" />
    <path
       id="path25759-4-9"
       style="color:#000000;fill:#636567;stroke-width:4.03151;-inkscape-stroke:none"
       d="m 10.022904,3.841677 h 1.575025 V 2.7708392 H 8.7958374 v 0.041726 z" />
  </g>
</svg>
