<?xml version="1.0" encoding="UTF-8" standalone="no"?>
<!--

    Licensed to the Apache Software Foundation (ASF) under one
    or more contributor license agreements.  See the NOTICE file
    distributed with this work for additional information
    regarding copyright ownership.  The ASF licenses this file
    to you under the Apache License, Version 2.0 (the
    "License"); you may not use this file except in compliance
    with the License.  You may obtain a copy of the License at

      https://www.apache.org/licenses/LICENSE-2.0

    Unless required by applicable law or agreed to in writing,
    software distributed under the License is distributed on an
    "AS IS" BASIS, WITHOUT WARRANTIES OR CONDITIONS OF ANY
    KIND, either express or implied.  See the License for the
    specific language governing permissions and limitations
    under the License.

-->

<svg width="16" height="16" viewBox="0 0 16 16" fill="none" xmlns="http://www.w3.org/2000/svg">
<path fill-rule="evenodd" clip-rule="evenodd" d="M4.06131 2.88835C3.88287 3.06916 3.82353 3.22666 3.82353 3.35583C3.82353 3.48501 3.88287 3.64251 4.06131 3.82331C4.2415 4.00589 4.52265 4.1892 4.90258 4.35203C5.66097 4.67705 6.73737 4.88814 7.94792 4.88814C9.15847 4.88814 10.2349 4.67705 10.9933 4.35203C11.3732 4.1892 11.6543 4.00589 11.8345 3.82331C12.013 3.64251 12.0723 3.48501 12.0723 3.35583C12.0723 3.22666 12.013 3.06916 11.8345 2.88835C11.6543 2.70577 11.3732 2.52247 10.9933 2.35964C10.2349 2.03462 9.15847 1.82353 7.94792 1.82353C6.73737 1.82353 5.66097 2.03462 4.90258 2.35964C4.52265 2.52247 4.2415 2.70577 4.06131 2.88835ZM4.57817 1.6027C5.46155 1.22411 6.65322 1 7.94792 1C9.24262 1 10.4343 1.22411 11.3177 1.6027C11.7586 1.79168 12.1418 2.02728 12.4207 2.30988C12.7013 2.59424 12.8958 2.94817 12.8958 3.35583C12.8958 3.7635 12.7013 4.11743 12.4207 4.40179C12.1418 4.68438 11.7586 4.91999 11.3177 5.10897C10.4343 5.48756 9.24262 5.71166 7.94792 5.71166C6.65322 5.71166 5.46155 5.48756 4.57817 5.10897C4.13722 4.91999 3.75406 4.68438 3.47517 4.40179C3.19452 4.11743 3 3.7635 3 3.35583C3 2.94817 3.19452 2.59424 3.47517 2.30988C3.75406 2.02728 4.13722 1.79168 4.57817 1.6027Z" fill="white"/>
<path fill-rule="evenodd" clip-rule="evenodd" d="M4.90258 13.6407C5.66097 13.9657 6.73737 14.1768 7.94792 14.1768C9.15847 14.1768 10.2349 13.9657 10.9933 13.6407C11.3732 13.4779 11.6543 13.2946 11.8345 13.112C12.013 12.9312 12.0723 12.7737 12.0723 12.6445H12.8958C12.8958 13.0522 12.7013 13.4061 12.4207 13.6905C12.1418 13.9731 11.7586 14.2087 11.3177 14.3977C10.4343 14.7763 9.24262 15.0004 7.94792 15.0004C6.65322 15.0004 5.46155 14.7763 4.57817 14.3977C4.13722 14.2087 3.75406 13.9731 3.47517 13.6905C3.19452 13.4061 3 13.0522 3 12.6445H3.82353C3.82353 12.7737 3.88287 12.9312 4.06131 13.112C4.2415 13.2946 4.52265 13.4779 4.90258 13.6407Z" fill="white"/>
<path fill-rule="evenodd" clip-rule="evenodd" d="M3.82353 3.33933L3.82353 12.6445H3L3 3.33933H3.82353Z" fill="white"/>
<path fill-rule="evenodd" clip-rule="evenodd" d="M12.8963 3.33933L12.8963 12.6445H12.0728L12.0728 3.33933H12.8963Z" fill="white"/>
</svg>
