<?xml version="1.0" encoding="UTF-8" standalone="no"?>
<!--

    Licensed to the Apache Software Foundation (ASF) under one
    or more contributor license agreements.  See the NOTICE file
    distributed with this work for additional information
    regarding copyright ownership.  The ASF licenses this file
    to you under the Apache License, Version 2.0 (the
    "License"); you may not use this file except in compliance
    with the License.  You may obtain a copy of the License at

      https://www.apache.org/licenses/LICENSE-2.0

    Unless required by applicable law or agreed to in writing,
    software distributed under the License is distributed on an
    "AS IS" BASIS, WITHOUT WARRANTIES OR CONDITIONS OF ANY
    KIND, either express or implied.  See the License for the
    specific language governing permissions and limitations
    under the License.

-->

<svg width="16" height="16" viewBox="0 0 16 16" fill="none" xmlns="http://www.w3.org/2000/svg">
<path fill-rule="evenodd" clip-rule="evenodd" d="M14 3H2V14.0667H14V3ZM1 2V15.0667H15V2H1Z" fill="white"/>
<path fill-rule="evenodd" clip-rule="evenodd" d="M15 5.2998H1V4.2998H15V5.2998Z" fill="white"/>
<path fill-rule="evenodd" clip-rule="evenodd" d="M5.1665 15.0665V4.7998H6.1665V15.0665H5.1665Z" fill="white"/>
<path fill-rule="evenodd" clip-rule="evenodd" d="M9.8335 15.0665V4.7998H10.8335V15.0665H9.8335Z" fill="white"/>
<path fill-rule="evenodd" clip-rule="evenodd" d="M5.66667 8.56689H1V7.56689H5.66667V8.56689Z" fill="white"/>
<path fill-rule="evenodd" clip-rule="evenodd" d="M5.66667 11.8335H1V10.8335H5.66667V11.8335Z" fill="white"/>
<path fill-rule="evenodd" clip-rule="evenodd" d="M15.0002 8.56689H10.3335V7.56689H15.0002V8.56689Z" fill="white"/>
<path fill-rule="evenodd" clip-rule="evenodd" d="M15.0002 11.8335H10.3335V10.8335H15.0002V11.8335Z" fill="white"/>
<path fill-rule="evenodd" clip-rule="evenodd" d="M10.3332 8.56689H5.6665V7.56689H10.3332V8.56689Z" fill="white"/>
<path fill-rule="evenodd" clip-rule="evenodd" d="M10.3332 11.8335H5.6665V10.8335H10.3332V11.8335Z" fill="white"/>
</svg>
