<?xml version="1.0" encoding="UTF-8"?>
<!--

    Licensed to the Apache Software Foundation (ASF) under one
    or more contributor license agreements.  See the NOTICE file
    distributed with this work for additional information
    regarding copyright ownership.  The ASF licenses this file
    to you under the Apache License, Version 2.0 (the
    "License"); you may not use this file except in compliance
    with the License.  You may obtain a copy of the License at

      http://www.apache.org/licenses/LICENSE-2.0

    Unless required by applicable law or agreed to in writing,
    software distributed under the License is distributed on an
    "AS IS" BASIS, WITHOUT WARRANTIES OR CONDITIONS OF ANY
    KIND, either express or implied.  See the License for the
    specific language governing permissions and limitations
    under the License.

-->
<svg id="New_Vector" xmlns="http://www.w3.org/2000/svg" width="16" height="16" version="1.1" viewBox="0 0 16 16">
  <!-- Generator: Adobe Illustrator 29.0.0, SVG Export Plug-In . SVG Version: 2.1.0 Build 186)  -->
  <defs>
    <style>
      .st0 {
        fill: #eb5f59;
      }

      .st1 {
        opacity: .33;
      }

      .st2 {
        opacity: .12;
      }

      .st3 {
        fill: #f6d094;
      }

      .st4 {
        fill: #fae965;
      }
    </style>
  </defs>
  <g>
    <polyline class="st4" points="10.694 3.308 3.001 11 3.001 14 6.001 14 13.696 6.31"/>
    <polygon class="st3" points="3.001 14 6.001 14 6.979 13.028 6.183 10.818 3.976 10.025 3.001 11 3.001 14"/>
    <path class="st0" d="M14.133,5.873l-.002-.002s.005-.004.008-.006c.829-.829.829-2.173,0-3.002s-2.162-.828-2.992-.008l-.983.983,1.853,1.147,1.149,1.856.967-.967Z"/>
    <g class="st1">
      <path d="M12.637,2.991c.366,0,.71.143.969.401.259.259.402.604.402.971s-.143.711-.402.971l-7.917,7.916h-1.939s0-1.939,0-1.939l7.922-7.922c.259-.256.602-.397.965-.397M12.637,2.241c-.539,0-1.079.204-1.492.613L3,10.999v3h3S14.137,5.864,14.137,5.864c.829-.829.829-2.173,0-3.002-.414-.414-.957-.621-1.499-.621h0Z"/>
    </g>
    <g class="st2">
      <path d="M3,13.999h3S14.137,5.864,14.137,5.864c.829-.829.829-2.173,0-3.002"/>
    </g>
    <rect x="3" y="13.25" width=".75" height=".75"/>
  </g>
  <description>Apache NetBeans Logo
  </description>
</svg>
