<?xml version="1.0" encoding="UTF-8"?>
<!--

    Licensed to the Apache Software Foundation (ASF) under one
    or more contributor license agreements.  See the NOTICE file
    distributed with this work for additional information
    regarding copyright ownership.  The ASF licenses this file
    to you under the Apache License, Version 2.0 (the
    "License"); you may not use this file except in compliance
    with the License.  You may obtain a copy of the License at

      http://www.apache.org/licenses/LICENSE-2.0

    Unless required by applicable law or agreed to in writing,
    software distributed under the License is distributed on an
    "AS IS" BASIS, WITHOUT WARRANTIES OR CONDITIONS OF ANY
    KIND, either express or implied.  See the License for the
    specific language governing permissions and limitations
    under the License.

-->
<svg id="New_Vector" xmlns="http://www.w3.org/2000/svg" width="24" height="24" xmlns:xlink="http://www.w3.org/1999/xlink" version="1.1" viewBox="0 0 24 24">
  <!-- Generator: Adobe Illustrator 29.0.0, SVG Export Plug-In . SVG Version: 2.1.0 Build 186)  -->
  <defs>
    <style>
      .st0 {
        fill: #4c8de0;
      }

      .st0, .st1, .st2, .st3, .st4, .st5, .st6, .st7, .st8 {
        fill-rule: evenodd;
      }

      .st1 {
        fill: #fff;
      }

      .st2 {
        fill: #d63960;
      }

      .st9 {
        fill: none;
        stroke: #626b70;
        stroke-miterlimit: 10;
        stroke-width: .5px;
      }

      .st3 {
        fill: #96203f;
      }

      .st10 {
        fill: url(#radial-gradient);
      }

      .st4 {
        fill: #a7c34f;
      }

      .st5 {
        fill: #b4d256;
      }

      .st6 {
        fill: #3468bf;
      }

      .st7 {
        fill: #f1f5e3;
      }

      .st8 {
        fill: #cfdae4;
      }

      .st11 {
        fill: #626b70;
      }

      .st12 {
        fill: #d28348;
      }
    </style>
    <radialGradient id="radial-gradient" cx="17.5" cy="17" fx="17.5" fy="17" r="6.626" gradientTransform="translate(0 3.4) scale(1 .8)" gradientUnits="userSpaceOnUse">
      <stop offset="0" stop-color="#f0f8ff"/>
      <stop offset=".258" stop-color="#edf6fe"/>
      <stop offset=".447" stop-color="#e3f1fd"/>
      <stop offset=".614" stop-color="#d3e9fb"/>
      <stop offset=".768" stop-color="#bdddf9"/>
      <stop offset=".912" stop-color="#a0cff6"/>
      <stop offset="1" stop-color="#8bc4f4"/>
    </radialGradient>
  </defs>
  <description>Apache NetBeans Logo
  </description>
  <path class="st4" d="M9,.622v4.014l-5.514,3.203L0,5.811,9,.622Z"/>
  <path class="st5" d="M18,5.811l-3.486,2.027-5.514-3.203V.622l9,5.189h0Z"/>
  <path class="st2" d="M0,16.189l3.486-2.027,5.514,3.203v4.014L0,16.189h0Z"/>
  <path class="st3" d="M0,5.811l3.486,2.027v6.324l-3.486,2.027V5.811h0Z"/>
  <path class="st7" d="M3.486,7.838l5.514-3.203,5.514,3.203-5.514,3.162-5.514-3.162Z"/>
  <path class="st1" d="M3.486,7.838l5.514,3.162v6.365l-5.514-3.203v-6.324Z"/>
  <g>
    <circle class="st10" cx="17.5" cy="17" r="4.5"/>
    <path class="st11" d="M17.5,13c2.206,0,4,1.794,4,4s-1.794,4-4,4-4-1.794-4-4,1.794-4,4-4M17.5,12c-2.761,0-5,2.239-5,5s2.239,5,5,5,5-2.239,5-5-2.239-5-5-5h0Z"/>
  </g>
  <g>
    <line class="st9" x1="12.833" y1="17" x2="14.5" y2="17"/>
    <line class="st9" x1="20.5" y1="17" x2="22.167" y2="17"/>
    <line class="st9" x1="17.5" y1="12.333" x2="17.5" y2="14"/>
    <line class="st9" x1="17.5" y1="20" x2="17.5" y2="21.667"/>
    <line class="st9" x1="14.2" y1="20.3" x2="14.907" y2="19.593"/>
    <line class="st9" x1="20.093" y1="14.407" x2="20.8" y2="13.7"/>
    <line class="st9" x1="14.2" y1="13.7" x2="14.907" y2="14.407"/>
    <line class="st9" x1="20.093" y1="19.593" x2="20.8" y2="20.3"/>
  </g>
  <polygon class="st12" points="17.971 17.943 18.443 17.471 15.002 14.313 14.813 14.502 17.971 17.943"/>
  <polygon class="st12" points="16.557 17.471 17.029 17.943 19.244 15.444 19.056 15.256 16.557 17.471"/>
  <path class="st8" d="M14.513,11.801v-3.963l-5.513,3.162v6.365l2.613-1.518c.337-1.732,1.42-3.194,2.9-4.046Z"/>
  <path class="st6" d="M17.5,11c.169,0,.335.012.5.025v-5.214l-3.487,2.027v3.963c.88-.507,1.898-.801,2.987-.801Z"/>
  <path class="st0" d="M11.5,17c0-.395.041-.78.113-1.153l-2.613,1.518v4.013l3.096-1.785c-.378-.786-.596-1.663-.596-2.593Z"/>
</svg>
