<?xml version="1.0" encoding="UTF-8"?>
<!--

    Licensed to the Apache Software Foundation (ASF) under one
    or more contributor license agreements.  See the NOTICE file
    distributed with this work for additional information
    regarding copyright ownership.  The ASF licenses this file
    to you under the Apache License, Version 2.0 (the
    "License"); you may not use this file except in compliance
    with the License.  You may obtain a copy of the License at

      http://www.apache.org/licenses/LICENSE-2.0

    Unless required by applicable law or agreed to in writing,
    software distributed under the License is distributed on an
    "AS IS" BASIS, WITHOUT WARRANTIES OR CONDITIONS OF ANY
    KIND, either express or implied.  See the License for the
    specific language governing permissions and limitations
    under the License.

-->
<svg id="New_Vector" xmlns="http://www.w3.org/2000/svg" width="32" height="32" version="1.1" viewBox="0 0 32 32">
  <!-- Generator: Adobe Illustrator 29.0.0, SVG Export Plug-In . SVG Version: 2.1.0 Build 186)  -->
  <defs>
    <style>
      .st0 {
        fill: #e0e0e0;
      }

      .st1 {
        fill: #ab8349;
      }

      .st2 {
        fill: none;
        stroke: #000;
        stroke-miterlimit: 10;
      }

      .st2, .st3 {
        opacity: .33;
      }

      .st4 {
        fill: #abb1b8;
      }

      .st5 {
        fill: #c3cad1;
      }

      .st6 {
        fill: #ffc36d;
      }

      .st7 {
        opacity: .5;
      }

      .st8 {
        opacity: .15;
      }
    </style>
  </defs>
  <g>
    <path class="st0" d="M29.308,5.907l-2.963,3.549-3.028-.152-.691-2.952,2.955-3.54c.229-.368-1.994-.167-3.28-.051-5.263.474-6.734,3.774-6.385,7.649.043.476.134.935.265,1.376l-4.572,4.708c-.717-.169-1.462-.258-2.236-.188-3.876.349-6.859,2.387-6.385,7.649.117,1.296.316,3.509.643,3.239l2.963-3.549,3.028.152.691,2.952-2.955,3.54c-.229.368,1.994.167,3.28.051,5.263-.474,6.734-3.774,6.385-7.649-.043-.478-.135-.94-.266-1.383l4.567-4.702c.719.17,1.467.26,2.243.19,3.876-.349,6.859-2.387,6.385-7.649-.117-1.296-.316-3.509-.643-3.239Z"/>
    <g class="st3">
      <path d="M23.573,3.658l-1.714,2.054-.32.383.114.486.691,2.952.172.733.752.038,3.028.152.498.025.32-.383,1.725-2.066c.051.472.092.932.117,1.205.194,2.158-.238,3.8-1.284,4.882-.916.947-2.328,1.513-4.195,1.681-.15.013-.299.02-.446.02-.461,0-.944-.061-1.477-.187l-.552-.13-.395.407-4.567,4.702-.408.42.167.562c.116.391.193.79.229,1.188.168,1.867-.136,3.357-.904,4.428-.878,1.223-2.417,1.942-4.574,2.136-.338.03-.76.069-1.182.099l1.714-2.054.32-.383-.114-.486-.69-2.952-.172-.733-.752-.038-3.028-.152-.498-.025-.32.383-1.725,2.066c-.051-.472-.092-.932-.117-1.205-.365-4.052,1.427-6.199,5.479-6.564.15-.013.298-.02.445-.02.459,0,.941.061,1.472.186l.552.13.395-.406,4.572-4.708.408-.42-.166-.561c-.116-.391-.192-.788-.228-1.182-.168-1.867.136-3.357.904-4.428.878-1.223,2.417-1.942,4.574-2.136.338-.03.76-.069,1.182-.099M24.787,2.602c-.714,0-1.752.094-2.486.16-5.263.474-6.734,3.774-6.385,7.649.043.476.134.935.265,1.376l-4.572,4.708c-.55-.129-1.117-.212-1.701-.212-.177,0-.355.008-.535.024-3.876.349-6.859,2.387-6.385,7.649.11,1.222.294,3.262.589,3.262.018,0,.036-.007.054-.023l2.963-3.549,3.028.152.69,2.952-2.955,3.54c-.098.158.256.211.794.211.714,0,1.752-.094,2.486-.16,5.263-.474,6.734-3.774,6.385-7.649-.043-.478-.135-.94-.266-1.383l4.567-4.702c.552.13,1.121.214,1.707.214.177,0,.356-.008.536-.024,3.876-.349,6.859-2.387,6.385-7.649-.11-1.222-.294-3.262-.589-3.262-.018,0-.036.007-.054.023l-2.963,3.549-3.028-.152-.691-2.952,2.955-3.54c.098-.158-.256-.211-.794-.211h0Z"/>
    </g>
  </g>
  <g>
    <path class="st6" d="M4.738,12.284L1.976,7.5l2.763-4.784h5.523l2.763,4.784-2.763,4.784h-5.523ZM7.5,5.238c-1.247,0-2.262,1.015-2.262,2.262s1.015,2.262,2.262,2.262,2.262-1.015,2.262-2.262-1.015-2.262-2.262-2.262Z"/>
    <path class="st1" d="M9.974,3.216l2.473,4.284-2.473,4.284h-4.947l-2.473-4.284,2.473-4.284h4.947M7.5,10.261c1.523,0,2.761-1.239,2.761-2.761s-1.239-2.761-2.761-2.761-2.761,1.239-2.761,2.761,1.239,2.761,2.761,2.761M10.551,2.216h-6.102L1.398,7.5l3.051,5.284h6.102l3.051-5.284-3.051-5.284h0ZM7.5,9.261c-.973,0-1.761-.789-1.761-1.761s.789-1.761,1.761-1.761,1.761.789,1.761,1.761-.789,1.761-1.761,1.761h0Z"/>
  </g>
  <g>
    <path class="st5" d="M29.381,19.477h-2.642v1.761h-3.965c-1.695,0-3.081,1.386-3.081,3.081v.883c0,1.695,1.387,3.081,3.081,3.081h3.965v1.761h2.642c1.453,0,2.642-1.189,2.642-2.642v-5.284c0-1.453-1.189-2.642-2.642-2.642Z"/>
    <g class="st3">
      <path d="M29.381,20.477c.905,0,1.642.737,1.642,1.642v5.284c0,.905-.737,1.642-1.642,1.642h-1.642v-1.761h-4.965c-1.148,0-2.081-.934-2.081-2.081v-.883c0-1.148.934-2.081,2.081-2.081h4.965v-1.761h1.642M29.381,19.477h-2.642v1.761h-3.965c-1.695,0-3.081,1.386-3.081,3.081v.883c0,1.695,1.387,3.081,3.081,3.081h3.965v1.761h2.642c1.453,0,2.642-1.189,2.642-2.642v-5.284c0-1.453-1.189-2.642-2.642-2.642h0Z"/>
    </g>
  </g>
  <g class="st3">
    <rect class="st4" x="27.239" y="23.5" width=".762" height="2.522"/>
    <polygon points="28.5 23 26.739 23 26.739 26.523 28.5 26.523 28.5 23 28.5 23"/>
  </g>
  <g class="st8">
    <rect class="st4" x="23.216" y="23" width=".881" height="3.523"/>
    <polygon points="24.096 23 23.216 23 23.216 26.523 24.096 26.523 24.096 23 24.096 23"/>
  </g>
  <g class="st8">
    <rect class="st4" x="24.977" y="23" width=".881" height="3.523"/>
    <polygon points="25.858 23 24.977 23 24.977 26.523 25.858 26.523 25.858 23 25.858 23"/>
  </g>
  <description>Apache NetBeans Logo
  </description>
  <g class="st7">
    <line class="st2" x1="14.183" y1="18.995" x2="18.755" y2="14.287"/>
  </g>
</svg>
