<?xml version="1.0" encoding="UTF-8" standalone="no"?>
<!--

    Licensed to the Apache Software Foundation (ASF) under one
    or more contributor license agreements.  See the NOTICE file
    distributed with this work for additional information
    regarding copyright ownership.  The ASF licenses this file
    to you under the Apache License, Version 2.0 (the
    "License"); you may not use this file except in compliance
    with the License.  You may obtain a copy of the License at

      http://www.apache.org/licenses/LICENSE-2.0

    Unless required by applicable law or agreed to in writing,
    software distributed under the License is distributed on an
    "AS IS" BASIS, WITHOUT WARRANTIES OR CONDITIONS OF ANY
    KIND, either express or implied.  See the License for the
    specific language governing permissions and limitations
    under the License.

-->

<svg width="38" height="32" viewBox="0 0 38 32" fill="none" xmlns="http://www.w3.org/2000/svg">
<path d="M37.9677 26.4194C37.129 26.4194 36.2903 26.4194 35.4516 26.4194C35.4516 26.3226 35.4516 26.1935 35.4516 26.0968C35.4516 20.3226 35.4193 14.5484 35.4516 8.80645C35.4516 7.29032 34.2903 5.70968 32.3548 5.70968C26.6774 5.70968 20.9677 5.70968 15.2903 5.70968C15.0645 5.70968 14.9355 5.64516 14.8064 5.41935C14.3548 4.58064 13.8709 3.77419 13.4516 2.96774C13.3548 2.80645 13.258 2.77419 13.0967 2.77419C10.5161 2.77419 7.90319 2.77419 5.32255 2.77419C5.22577 2.77419 5.129 2.77419 5.03223 2.77419C5.03223 1.83871 5.03223 0.935484 5.03223 0C5.129 0 5.19352 0 5.29029 0C8.7419 0 12.1935 0 15.6129 0C15.8064 0 15.9032 0.0645151 15.9677 0.225805C16.4193 1.06452 16.9032 1.87097 17.3225 2.67742C17.4193 2.87097 17.5161 2.93548 17.7419 2.93548C23.4516 2.93548 29.1613 2.93548 34.8387 2.93548C36.4193 2.93548 37.6451 3.96774 37.9032 5.51613C37.9354 5.64516 37.9354 5.80645 37.9354 5.93548C37.9354 12.6774 37.9354 19.4194 37.9354 26.1613C37.9677 26.2258 37.9677 26.3226 37.9677 26.4194Z" fill="#939699"/>
<path d="M29.8387 8.51617C24.129 8.54843 18.4194 8.51617 12.7419 8.54843C12.5484 8.54843 12.4194 8.48391 12.3226 8.32262C11.871 7.48391 11.3871 6.64521 10.9355 5.8065C10.8387 5.64521 10.7419 5.58069 10.5806 5.58069C7.12903 5.58069 3.70968 5.58069 0.258065 5.58069C0.193549 5.58069 0.0967742 5.58069 0 5.58069C0 14.4194 0 23.1936 0 32C11 32 21.9677 32 32.9355 32C32.9355 31.9033 32.9355 31.8065 32.9355 31.742C32.9355 25.0323 32.9355 18.3549 32.9355 11.6452C32.9355 9.74198 31.4194 8.48392 29.8387 8.51617ZM7.35484 11.2581C6.77419 11.2581 6.22581 11.2581 5.64516 11.2581C5.64516 11.8388 5.64516 12.3871 5.64516 12.9678C5.22581 12.9678 4.77419 12.9678 4.35484 12.9678C4.35484 12.3871 4.35484 11.8388 4.35484 11.2581C3.77419 11.2581 3.22581 11.2581 2.64516 11.2581C2.64516 10.8388 2.64516 10.3871 2.64516 9.96779C3.22581 9.96779 3.77419 9.96779 4.35484 9.96779C4.35484 9.38714 4.35484 8.83875 4.35484 8.25811C4.77419 8.25811 5.22581 8.25811 5.64516 8.25811C5.64516 8.83875 5.64516 9.38714 5.64516 9.96779C6.22581 9.96779 6.77419 9.96779 7.35484 9.96779C7.35484 10.4194 7.35484 10.8388 7.35484 11.2581ZM17.871 12.8388L19.871 16.8388H15.871L17.871 12.8388ZM15.2581 24.4517C14.2903 24.4517 13.5161 23.6775 13.5161 22.7097C13.5161 21.742 14.2903 20.9678 15.2581 20.9678C16.2258 20.9678 17 21.742 17 22.7097C17 23.6775 16.2258 24.4517 15.2581 24.4517ZM19.3226 19.4839L21.3871 18.5807L23.4516 19.4839V22.4517L21.3871 23.3549L19.3226 22.4517V19.4839ZM22.0323 28.871C21.0645 28.871 20.2903 28.0968 20.2903 27.1291C20.2903 26.1613 21.0645 25.3871 22.0323 25.3871C23 25.3871 23.7742 26.1613 23.7742 27.1291C23.8064 28.0968 23 28.871 22.0323 28.871ZM23.3871 14.8388C23.3871 13.6129 24.3871 12.6129 25.6129 12.6129C26.8387 12.6129 27.8387 13.6129 27.8387 14.8388C27.8387 16.0646 26.8387 17.0646 25.6129 17.0646C24.3871 17.0646 23.3871 16.0646 23.3871 14.8388ZM26.5806 23.6775L28.3548 20.1291L30.129 23.6775H26.5806Z" fill="#939699"/>
</svg>
