<?xml version="1.0" encoding="UTF-8" standalone="no"?>
<!--

    Licensed to the Apache Software Foundation (ASF) under one
    or more contributor license agreements.  See the NOTICE file
    distributed with this work for additional information
    regarding copyright ownership.  The ASF licenses this file
    to you under the Apache License, Version 2.0 (the
    "License"); you may not use this file except in compliance
    with the License.  You may obtain a copy of the License at

      http://www.apache.org/licenses/LICENSE-2.0

    Unless required by applicable law or agreed to in writing,
    software distributed under the License is distributed on an
    "AS IS" BASIS, WITHOUT WARRANTIES OR CONDITIONS OF ANY
    KIND, either express or implied.  See the License for the
    specific language governing permissions and limitations
    under the License.

-->

<svg width="32" height="32" viewBox="0 0 32 32" fill="none" xmlns="http://www.w3.org/2000/svg">
<path d="M21.8113 18.1093V16.4373H19.0533V18.1093C19.0533 18.4694 18.7155 18.7781 18.3215 18.7781H16.4922V23.8199H21.7832V22.1479C21.7832 21.7877 22.1209 21.4791 22.5149 21.4791H24.3443V18.7781H22.5149C22.1491 18.7781 21.8113 18.4951 21.8113 18.1093Z" fill="#939699"/>
<path d="M30.2544 0H1.77305C0.788022 0 0 0.720256 0 1.62058V30.3794C0 31.2797 0.788022 32 1.77305 32H30.2262C31.2113 32 31.9993 31.2797 31.9993 30.3794V1.62058C32.0274 0.74598 31.2113 0 30.2544 0ZM27.8903 18.1093C27.8903 18.4695 27.5526 18.7781 27.1586 18.7781H25.3293V21.4791H27.1586C27.5526 21.4791 27.8903 21.7878 27.8903 22.1479V26.3923C27.8903 26.7524 27.5526 27.0611 27.1586 27.0611H22.5149C22.1209 27.0611 21.7832 26.7524 21.7832 26.3923V24.7203H15.5071V18.7781H13.6778C13.2838 18.7781 12.9461 18.4695 12.9461 18.1093V16.4373H10.188V18.1093C10.188 18.4695 9.85027 18.7781 9.45626 18.7781H7.62692V21.4791H9.45626C9.85027 21.4791 10.188 21.7878 10.188 22.1479V26.3923C10.188 26.7524 9.85027 27.0611 9.45626 27.0611H4.81256C4.41855 27.0611 4.08082 26.7524 4.08082 26.3923V22.1479C4.08082 21.7878 4.41855 21.4791 4.81256 21.4791H6.64189V18.7781H4.81256C4.41855 18.7781 4.08082 18.4695 4.08082 18.1093V13.865C4.08082 13.5048 4.41855 13.1961 4.81256 13.1961H9.45626C9.85027 13.1961 10.188 13.5048 10.188 13.865V15.537H12.9461V13.865C12.9461 13.5048 13.2838 13.1961 13.6778 13.1961H15.5071V10.4952H13.6778C13.2838 10.4952 12.9461 10.1865 12.9461 9.82637V5.58199C12.9461 5.22186 13.2838 4.91318 13.6778 4.91318H18.3215C18.7155 4.91318 19.0532 5.22186 19.0532 5.58199V9.82637C19.0532 10.1865 18.7155 10.4952 18.3215 10.4952H16.4922V13.1961H18.3215C18.7155 13.1961 19.0532 13.5048 19.0532 13.865V15.537H21.8113V13.865C21.8113 13.5048 22.149 13.1961 22.543 13.1961H27.1867C27.5807 13.1961 27.9185 13.5048 27.9185 13.865V18.1093H27.8903Z" fill="#939699"/>
</svg>
