<?xml version="1.0" encoding="UTF-8" standalone="no"?>
<svg
   xmlns:dc="http://purl.org/dc/elements/1.1/"
   xmlns:cc="http://creativecommons.org/ns#"
   xmlns:rdf="http://www.w3.org/1999/02/22-rdf-syntax-ns#"
   xmlns:svg="http://www.w3.org/2000/svg"
   xmlns="http://www.w3.org/2000/svg"
   id="svg23"
   version="1.1"
   viewBox="0 0 64 64"
   height="64"
   width="64">
  <metadata
     id="metadata29">
    <rdf:RDF>
      <cc:Work
         rdf:about="">
        <dc:format>image/svg+xml</dc:format>
        <dc:type
           rdf:resource="http://purl.org/dc/dcmitype/StillImage" />
        <dc:title>Apache NetBeans Logo</dc:title>
      </cc:Work>
    </rdf:RDF>
  </metadata>
  <defs
     id="defs27" />
  <title
     id="title2">Apache NetBeans Logo</title>
  <description>Apache NetBeans Logo</description>
  <g
     transform="matrix(0.125,0,0,0.125,4.25,0)"
     style="fill:none;fill-rule:evenodd;stroke-width:0"
     id="logo">
    <path
       style="fill:#a1c535"
       id="path4"
       d="M 222,0 V 99 L 86,178 0,128 Z" />
    <path
       style="fill:#add439"
       id="path6"
       d="M 444,128 358,178 222,99 V 0 Z" />
    <path
       style="fill:#1b6ac6"
       id="path8"
       d="M 444,384 358,334 V 178 l 86,-50 z" />
    <path
       style="fill:#2e90e8"
       id="path10"
       d="m 222,512 v -99 l 136,-79 86,50 z" />
    <path
       style="fill:#ea205e"
       id="path12"
       d="m 0,384 86,-50 136,79 v 99 z" />
    <path
       style="fill:#a5073e"
       id="path14"
       d="m 0,128 86,50 V 334 L 0,384 Z" />
    <path
       style="fill:#f1f6e2"
       id="path16"
       d="M 86,178 222,99 358,178 222,256 Z" />
    <path
       style="fill:#cedbe6"
       id="path18"
       d="M 222,256 358,178 V 334 L 222,413 Z" />
    <path
       style="fill:#ffffff"
       id="path20"
       d="m 86,178 136,78 V 413 L 86,334 Z" />
  </g>
</svg>
