<?xml version="1.0" encoding="UTF-8"?>
<!--

    Licensed to the Apache Software Foundation (ASF) under one
    or more contributor license agreements.  See the NOTICE file
    distributed with this work for additional information
    regarding copyright ownership.  The ASF licenses this file
    to you under the Apache License, Version 2.0 (the
    "License"); you may not use this file except in compliance
    with the License.  You may obtain a copy of the License at

      http://www.apache.org/licenses/LICENSE-2.0

    Unless required by applicable law or agreed to in writing,
    software distributed under the License is distributed on an
    "AS IS" BASIS, WITHOUT WARRANTIES OR CONDITIONS OF ANY
    KIND, either express or implied.  See the License for the
    specific language governing permissions and limitations
    under the License.

-->
<svg id="New_Vector" xmlns="http://www.w3.org/2000/svg" width="16" height="16" version="1.1" viewBox="0 0 16 16">
  <!-- Generator: Adobe Illustrator 29.0.0, SVG Export Plug-In . SVG Version: 2.1.0 Build 186)  -->
  <defs>
    <style>
      .st0, .st1 {
        fill: #5b7b95;
      }

      .st1 {
        opacity: .7;
      }

      .st2 {
        fill: #649141;
      }

      .st3 {
        fill: #cbe5b9;
      }

      .st4 {
        opacity: .5;
      }

      .st5 {
        opacity: .33;
      }

      .st6 {
        fill: #ebf6fd;
      }
    </style>
  </defs>
  <g class="st4">
    <polygon class="st1" points="16 6 16 5 13 5 13 3 12 3 12 6 16 6"/>
    <g>
      <polygon class="st6" points="12.5 2.5 10.5 4.5 13.5 7.5 10.5 10.5 13.5 13.5 12.5 14.5 15.5 14.5 15.5 5.5 12.5 2.5"/>
      <polygon class="st2" points="5 15 12 15 13 14 5 14 5 15"/>
      <polygon class="st0" points="16 4.793 13.207 2 13 2 12 3 12.793 3 15 5.207 15 14 13 14 12 15 16 15 16 4.793"/>
    </g>
  </g>
  <g class="st4">
    <polygon class="st1" points="14 5 14 4 11 4 11 2 10 2 10 5 14 5"/>
    <g>
      <polygon class="st6" points="10.5 1.5 8.5 3.5 11.5 6.5 8.5 9.5 11.5 12.5 10.5 13.5 13.5 13.5 13.5 4.5 10.5 1.5"/>
      <polygon class="st2" points="3 14 10 14 11 13 3 13 3 14"/>
      <polygon class="st0" points="14 3.793 11.207 1 11 1 10 2 10.793 2 13 4.207 13 13 11 13 10 14 14 14 14 3.793"/>
    </g>
  </g>
  <polygon class="st3" points="6.5 11.5 3.5 8.5 6.5 5.5 3.5 2.5 5 1 5.5 .5 1.5 .5 1.5 12.5 5.5 12.5 6.5 11.5"/>
  <polygon class="st6" points="7.5 .5 5.5 2.5 8.5 5.5 5.5 8.5 8.5 11.5 7.5 12.5 11.5 12.5 11.5 3.5 7.5 .5"/>
  <polygon class="st5" points="6 9 7 10 10 10 10 9 6 9"/>
  <g class="st5">
    <polygon points="7 7 6 8 10 8 10 7 7 7"/>
    <polygon points="4 9 3 9 3 10 5 10 4 9"/>
    <polygon points="5 7 3 7 3 8 4 8 5 7"/>
    <polygon points="6.5 5.5 6 5 3 5 3 6 6 6 6.5 5.5"/>
    <polygon points="4 3 3 3 3 4 5 4 4 3"/>
  </g>
  <polygon class="st2" points="6 12 2 12 2 1 5 1 5.5 .5 6 0 1 0 1 13 5 13 6 12"/>
  <polygon class="st1" points="12 4 12 3 9 3 9 1 8 1 8 4 12 4"/>
  <polygon class="st0" points="12 2.793 9.207 0 8 0 7 1 8.793 1 11 3.207 11 12 8 12 7 13 12 13 12 2.793"/>
  <description>Apache NetBeans Logo
  </description>
</svg>
